<?xml version="1.0" encoding="UTF-8"?>
<svg width="64" height="64" viewBox="0 0 64 64" fill="none" xmlns="http://www.w3.org/2000/svg">
  <defs>
    <linearGradient id="chatBubbleGradient" x1="0%" y1="0%" x2="100%" y2="100%">
      <stop offset="0%" style="stop-color:#7b46e4;stop-opacity:1" />
      <stop offset="100%" style="stop-color:#4F46E5;stop-opacity:1" />
    </linearGradient>
  </defs>

  <!-- Chat bubble with tail -->
  <path d="M52 12H12C9.79086 12 8 13.7909 8 16V40C8 42.2091 9.79086 44 12 44H18L24 52L30 44H52C54.2091 44 56 42.2091 56 40V16C56 13.7909 54.2091 12 52 12Z"
        fill="url(#chatBubbleGradient)" fill-opacity="0.1"/>
  <path d="M52 12H12C9.79086 12 8 13.7909 8 16V40C8 42.2091 9.79086 44 12 44H18L24 52L30 44H52C54.2091 44 56 42.2091 56 40V16C56 13.7909 54.2091 12 52 12Z"
        stroke="url(#chatBubbleGradient)" stroke-width="2" stroke-linecap="round" stroke-linejoin="round"/>

  <!-- Text lines inside bubble -->
  <path d="M18 22H46" stroke="url(#chatBubbleGradient)" stroke-width="2" stroke-linecap="round"/>
  <path d="M18 28H42" stroke="url(#chatBubbleGradient)" stroke-width="2" stroke-linecap="round"/>
  <path d="M18 34H38" stroke="url(#chatBubbleGradient)" stroke-width="2" stroke-linecap="round"/>
</svg>
