<?xml version="1.0" encoding="UTF-8"?>
<svg id="Calque_1" data-name="Calque 1" xmlns="http://www.w3.org/2000/svg" viewBox="485 490 1020 100">
  <defs>
    <style>
      .cls-1 {
        fill: #252525;
      }

      .cls-2 {
        fill: #7b46e4;
      }
    </style>
  </defs>
  <path class="cls-1" d="M1234.79,554.48c-.36.55-.88,1.27-1.58,2.06-.59.66-1.77,1.87-3.54,3.03-.76.49-1.56.93-2.39,1.31-2.27,1.02-4.76,1.54-7.4,1.54s-5.13-.51-7.44-1.53c-2.31-1.02-4.31-2.48-5.96-4.35-1.62-1.83-2.9-4.05-3.81-6.57-.91-2.50-1.37-5.29-1.37-8.28s.46-5.65,1.37-8.11c.92-2.50,2.22-4.64,3.85-6.37,1.65-1.73,3.64-3.10,5.94-4.07,4.60-1.94,10.27-1.94,14.79,0,2.25.98,4.24,2.34,5.91,4.05.72.74,1.36,1.57,1.94,2.46l13.42-8.20,9.05-4.93h0c-1.54-2.13-3.28-4.09-5.22-5.84-4.04-3.66-8.88-6.52-14.38-8.51-5.53-2-11.62-3.01-18.09-3.01s-12.55,1.01-18.09,3.01c-5.50,1.99-10.32,4.85-14.32,8.51-3.98,3.65-7.17,8.14-9.45,13.36-2.28,5.22-3.44,11.16-3.44,17.67s1.16,12.53,3.45,17.87c2.28,5.33,5.47,9.95,9.46,13.72,4.01,3.77,8.82,6.73,14.32,8.79,5.52,2.07,11.60,3.12,18.07,3.12s12.54-1.05,18.06-3.12c3.30-1.24,8.85-3.84,14.39-8.80,2.30-2.06,4.04-4.03,5.26-5.56-7.60-4.40-15.20-8.81-22.80-13.21Z"/>
  <path class="cls-1" d="M685.40,510.64c-4.04-3.66-8.88-6.52-14.38-8.51-5.53-2-11.62-3.01-18.09-3.01s-12.55,1.01-18.09,3.01c-5.50,1.99-10.32,4.85-14.32,8.51-3.98,3.65-7.17,8.14-9.45,13.36-2.28,5.22-3.44,11.16-3.44,17.67s1.16,12.53,3.45,17.87c2.28,5.33,5.47,9.95,9.46,13.72,4.01,3.77,8.82,6.73,14.32,8.79,5.52,2.07,11.60,3.12,18.07,3.12s12.54-1.05,18.06-3.12c5.50-2.06,10.34-5.02,14.39-8.80,4.03-3.77,7.23-8.38,9.52-13.71,2.29-5.34,3.45-11.36,3.45-17.87s-1.16-12.45-3.45-17.67c-2.28-5.21-5.48-9.70-9.51-13.35M670.15,549.95c-.91,2.52-2.22,4.74-3.89,6.59-1.68,1.86-3.68,3.31-5.93,4.33-2.27,1.02-4.76,1.54-7.40,1.54s-5.13-.51-7.44-1.53c-2.31-1.02-4.31-2.48-5.96-4.35-1.62-1.84-2.90-4.05-3.82-6.57-.91-2.50-1.37-5.29-1.37-8.28s.46-5.65,1.37-8.11c.92-2.50,2.22-4.64,3.85-6.37,1.65-1.73,3.64-3.10,5.94-4.07,4.60-1.94,10.27-1.94,14.79,0,2.25.98,4.24,2.34,5.91,4.05,1.69,1.74,3.01,3.89,3.93,6.39.91,2.47,1.37,5.20,1.37,8.11s-.46,5.78-1.37,8.29"/>
  <polygon class="cls-1" points="775.82 499.16 749.20 499.16 749.20 585.14 805.62 585.14 805.62 562.96 775.82 562.96 775.82 499.16"/>
  <polygon class="cls-1" points="875.13 551.65 906.45 551.65 906.45 532.01 875.13 532.01 875.13 520.46 908.48 520.46 908.48 499.16 850.53 499.16 850.53 585.14 910.64 585.14 910.64 563.84 875.13 563.84 875.13 551.65"/>
  <path class="cls-1" d="M1015.30,548.91c4.69-2.12,8.33-5.15,10.82-9,2.48-3.85,3.74-8.39,3.74-13.49s-.98-9.75-2.93-13.21c-1.95-3.47-4.54-6.28-7.69-8.34-3.21-2.10-6.91-3.58-11-4.42-4.21-.86-8.49-1.30-12.75-1.30h-36.77v85.98h25.48v-32.09h3.93l17.20,32.09h30.09l-22.12-35.33,2-.90ZM1002.68,532.69c-.88,1.20-1.99,2.16-3.30,2.85-1.23.65-2.58,1.08-4.02,1.28-1.31.18-2.51.27-3.60.27h-7.82v-18.28h9.08c.99,0,2.07.07,3.24.20,1.31.15,2.54.52,3.66,1.08,1.23.61,2.24,1.55,3.02,2.78.78,1.24,1.18,2.86,1.18,4.82s-.48,3.69-1.44,5"/>
  <polygon class="cls-1" points="1057.50 499.17 1091.41 549.68 1091.41 585.13 1117.74 585.13 1117.74 550.77 1088.27 499.17 1057.50 499.17"/>
  <path class="cls-2" d="M1131.54,494.73c-6.57,0-11.89,5.33-11.89,11.91s5.32,11.91,11.89,11.91,11.89-5.33,11.89-11.91-5.32-11.91-11.89-11.91"/>
  <polygon class="cls-1" points="569.62 520.84 569.62 499.16 499.12 499.16 499.12 520.84 521.19 520.84 521.19 585.14 521.19 585.14 547.56 585.14 547.56 585.14 547.56 520.84 569.62 520.84"/>
  <path class="cls-1" d="M1491.45,524.13c-2.28-5.21-5.48-9.70-9.51-13.35-4.04-3.66-8.88-6.52-14.38-8.51-5.51-1.99-11.57-3-18.02-3.01l-3.95.03h-26.62v85.98h30.57c6.44,0,12.50-1.02,18-3.09,5.50-2.06,10.34-5.02,14.39-8.80,4.03-3.77,7.23-8.38,9.52-13.71,2.29-5.34,3.45-11.36,3.45-17.87s-1.16-12.45-3.45-17.67ZM1466.69,550.09c-.91,2.52-2.22,4.74-3.89,6.59-1.68,1.86-3.68,3.31-5.93,4.33-2.25,1.01-4.72,1.53-7.33,1.53h-3.95v-40.75h3.95c2.54,0,5.06.49,7.30,1.46,2.25.98,4.24,2.34,5.91,4.05,1.69,1.74,3.01,3.89,3.93,6.39.91,2.47,1.37,5.20,1.37,8.11s-.46,5.78-1.37,8.29Z"/>
  <path class="cls-1" d="M1348.68,585.03l27.71.10-24.03-85.98h-37.38l-24.03,85.98,27.71-.10,2.63-12.85h24.76l2.63,12.85ZM1333.68,510.85l8.46,41.98-16.92.02,8.46-42Z"/>
</svg>
